<svg id="visual" viewBox="0 0 900 600" width="900" height="600" xmlns="http://www.w3.org/2000/svg" xmlns:xlink="http://www.w3.org/1999/xlink" version="1.1"><rect x="0" y="0" width="900" height="600" fill="#022a49"></rect><defs><linearGradient id="grad1_0" x1="33.3%" y1="0%" x2="100%" y2="100%"><stop offset="20%" stop-color="#ff6f61" stop-opacity="1"></stop><stop offset="80%" stop-color="#ff6f61" stop-opacity="1"></stop></linearGradient></defs><defs><linearGradient id="grad1_1" x1="33.3%" y1="0%" x2="100%" y2="100%"><stop offset="20%" stop-color="#ff6f61" stop-opacity="1"></stop><stop offset="80%" stop-color="#022a49" stop-opacity="1"></stop></linearGradient></defs><defs><linearGradient id="grad2_0" x1="0%" y1="0%" x2="66.7%" y2="100%"><stop offset="20%" stop-color="#ff6f61" stop-opacity="1"></stop><stop offset="80%" stop-color="#ff6f61" stop-opacity="1"></stop></linearGradient></defs><defs><linearGradient id="grad2_1" x1="0%" y1="0%" x2="66.7%" y2="100%"><stop offset="20%" stop-color="#022a49" stop-opacity="1"></stop><stop offset="80%" stop-color="#ff6f61" stop-opacity="1"></stop></linearGradient></defs><g transform="translate(900, 0)"><path d="M0 459.7C-49 448.6 -98 437.4 -134.1 412.8C-170.2 388.1 -193.3 350 -239.2 329.3C-285.2 308.6 -353.9 305.3 -371.9 270.2C-389.9 235.2 -357.1 168.4 -363.3 118C-369.5 67.7 -414.6 33.9 -459.7 0L0 0Z" fill="#8c4581"></path><path d="M0 229.9C-24.5 224.3 -49 218.7 -67.1 206.4C-85.1 194.1 -96.6 175 -119.6 164.6C-142.6 154.3 -177 152.6 -186 135.1C-195 117.6 -178.6 84.2 -181.7 59C-184.7 33.9 -207.3 16.9 -229.9 0L0 0Z" fill="#ff6f61"></path></g><g transform="translate(0, 600)"><path d="M0 -459.7C41 -435.6 82 -411.5 130.7 -402.3C179.4 -393.1 235.9 -398.8 270.2 -371.9C304.5 -345 316.7 -285.5 329.3 -239.2C341.8 -193 354.8 -160 376.6 -122.4C398.4 -84.7 429.1 -42.4 459.7 0L0 0Z" fill="#8c4581"></path><path d="M0 -229.9C20.5 -217.8 41 -205.7 65.4 -201.1C89.7 -196.6 117.9 -199.4 135.1 -186C152.3 -172.5 158.3 -142.7 164.6 -119.6C170.9 -96.5 177.4 -80 188.3 -61.2C199.2 -42.4 214.5 -21.2 229.9 0L0 0Z" fill="#ff6f61"></path></g></svg>