<svg id="visual" viewBox="0 0 900 600" width="900" height="600" xmlns="http://www.w3.org/2000/svg" xmlns:xlink="http://www.w3.org/1999/xlink" version="1.1"><path d="M0 175L13.7 193C27.3 211 54.7 247 82 239C109.3 231 136.7 179 163.8 151C191 123 218 119 245.2 111C272.3 103 299.7 91 327 104C354.3 117 381.7 155 409 164C436.3 173 463.7 153 491 166C518.3 179 545.7 225 573 225C600.3 225 627.7 179 654.8 172C682 165 709 197 736.2 196C763.3 195 790.7 161 818 167C845.3 173 872.7 219 886.3 242L900 265L900 0L886.3 0C872.7 0 845.3 0 818 0C790.7 0 763.3 0 736.2 0C709 0 682 0 654.8 0C627.7 0 600.3 0 573 0C545.7 0 518.3 0 491 0C463.7 0 436.3 0 409 0C381.7 0 354.3 0 327 0C299.7 0 272.3 0 245.2 0C218 0 191 0 163.8 0C136.7 0 109.3 0 82 0C54.7 0 27.3 0 13.7 0L0 0Z" fill="#6198ff"></path><path d="M0 379L13.7 386C27.3 393 54.7 407 82 397C109.3 387 136.7 353 163.8 332C191 311 218 303 245.2 305C272.3 307 299.7 319 327 320C354.3 321 381.7 311 409 317C436.3 323 463.7 345 491 360C518.3 375 545.7 383 573 387C600.3 391 627.7 391 654.8 388C682 385 709 379 736.2 365C763.3 351 790.7 329 818 329C845.3 329 872.7 351 886.3 362L900 373L900 263L886.3 240C872.7 217 845.3 171 818 165C790.7 159 763.3 193 736.2 194C709 195 682 163 654.8 170C627.7 177 600.3 223 573 223C545.7 223 518.3 177 491 164C463.7 151 436.3 171 409 162C381.7 153 354.3 115 327 102C299.7 89 272.3 101 245.2 109C218 117 191 121 163.8 149C136.7 177 109.3 229 82 237C54.7 245 27.3 209 13.7 191L0 173Z" fill="#3c80ff"></path><path d="M0 493L13.7 489C27.3 485 54.7 477 82 468C109.3 459 136.7 449 163.8 438C191 427 218 415 245.2 417C272.3 419 299.7 435 327 427C354.3 419 381.7 387 409 383C436.3 379 463.7 403 491 425C518.3 447 545.7 467 573 472C600.3 477 627.7 467 654.8 464C682 461 709 465 736.2 460C763.3 455 790.7 441 818 442C845.3 443 872.7 459 886.3 467L900 475L900 371L886.3 360C872.7 349 845.3 327 818 327C790.7 327 763.3 349 736.2 363C709 377 682 383 654.8 386C627.7 389 600.3 389 573 385C545.7 381 518.3 373 491 358C463.7 343 436.3 321 409 315C381.7 309 354.3 319 327 318C299.7 317 272.3 305 245.2 303C218 301 191 309 163.8 330C136.7 351 109.3 385 82 395C54.7 405 27.3 391 13.7 384L0 377Z" fill="#0066ff"></path><path d="M0 553L13.7 552C27.3 551 54.7 549 82 546C109.3 543 136.7 539 163.8 531C191 523 218 511 245.2 505C272.3 499 299.7 499 327 488C354.3 477 381.7 455 409 460C436.3 465 463.7 497 491 515C518.3 533 545.7 537 573 535C600.3 533 627.7 525 654.8 527C682 529 709 541 736.2 537C763.3 533 790.7 513 818 508C845.3 503 872.7 513 886.3 518L900 523L900 473L886.3 465C872.7 457 845.3 441 818 440C790.7 439 763.3 453 736.2 458C709 463 682 459 654.8 462C627.7 465 600.3 475 573 470C545.7 465 518.3 445 491 423C463.7 401 436.3 377 409 381C381.7 385 354.3 417 327 425C299.7 433 272.3 417 245.2 415C218 413 191 425 163.8 436C136.7 447 109.3 457 82 466C54.7 475 27.3 483 13.7 487L0 491Z" fill="#0059dd"></path><path d="M0 601L13.7 601C27.3 601 54.7 601 82 601C109.3 601 136.7 601 163.8 601C191 601 218 601 245.2 601C272.3 601 299.7 601 327 601C354.3 601 381.7 601 409 601C436.3 601 463.7 601 491 601C518.3 601 545.7 601 573 601C600.3 601 627.7 601 654.8 601C682 601 709 601 736.2 601C763.3 601 790.7 601 818 601C845.3 601 872.7 601 886.3 601L900 601L900 521L886.3 516C872.7 511 845.3 501 818 506C790.7 511 763.3 531 736.2 535C709 539 682 527 654.8 525C627.7 523 600.3 531 573 533C545.7 535 518.3 531 491 513C463.7 495 436.3 463 409 458C381.7 453 354.3 475 327 486C299.7 497 272.3 497 245.2 503C218 509 191 521 163.8 529C136.7 537 109.3 541 82 544C54.7 547 27.3 549 13.7 550L0 551Z" fill="#004cbb"></path></svg>