<svg id="visual" viewBox="0 0 900 600" width="900" height="600" xmlns="http://www.w3.org/2000/svg" xmlns:xlink="http://www.w3.org/1999/xlink" version="1.1"><rect x="0" y="0" width="900" height="600" fill="#001220"></rect><path d="M0 379L16.7 384.3C33.3 389.7 66.7 400.3 100 409.3C133.3 418.3 166.7 425.7 200 429.5C233.3 433.3 266.7 433.7 300 420.5C333.3 407.3 366.7 380.7 400 381.5C433.3 382.3 466.7 410.7 500 411.7C533.3 412.7 566.7 386.3 600 376.2C633.3 366 666.7 372 700 378.8C733.3 385.7 766.7 393.3 800 393C833.3 392.7 866.7 384.3 883.3 380.2L900 376L900 601L883.3 601C866.7 601 833.3 601 800 601C766.7 601 733.3 601 700 601C666.7 601 633.3 601 600 601C566.7 601 533.3 601 500 601C466.7 601 433.3 601 400 601C366.7 601 333.3 601 300 601C266.7 601 233.3 601 200 601C166.7 601 133.3 601 100 601C66.7 601 33.3 601 16.7 601L0 601Z" fill="#ff6f61"></path><path d="M0 471L16.7 464.7C33.3 458.3 66.7 445.7 100 444C133.3 442.3 166.7 451.7 200 455.3C233.3 459 266.7 457 300 445.8C333.3 434.7 366.7 414.3 400 415.2C433.3 416 466.7 438 500 451.3C533.3 464.7 566.7 469.3 600 460.7C633.3 452 666.7 430 700 427.2C733.3 424.3 766.7 440.7 800 444.3C833.3 448 866.7 439 883.3 434.5L900 430L900 601L883.3 601C866.7 601 833.3 601 800 601C766.7 601 733.3 601 700 601C666.7 601 633.3 601 600 601C566.7 601 533.3 601 500 601C466.7 601 433.3 601 400 601C366.7 601 333.3 601 300 601C266.7 601 233.3 601 200 601C166.7 601 133.3 601 100 601C66.7 601 33.3 601 16.7 601L0 601Z" fill="#ff5e60"></path><path d="M0 474L16.7 474.3C33.3 474.7 66.7 475.3 100 471.5C133.3 467.7 166.7 459.3 200 460.5C233.3 461.7 266.7 472.3 300 471.7C333.3 471 366.7 459 400 461C433.3 463 466.7 479 500 478.7C533.3 478.3 566.7 461.7 600 459.5C633.3 457.3 666.7 469.7 700 472.8C733.3 476 766.7 470 800 464.3C833.3 458.7 866.7 453.3 883.3 450.7L900 448L900 601L883.3 601C866.7 601 833.3 601 800 601C766.7 601 733.3 601 700 601C666.7 601 633.3 601 600 601C566.7 601 533.3 601 500 601C466.7 601 433.3 601 400 601C366.7 601 333.3 601 300 601C266.7 601 233.3 601 200 601C166.7 601 133.3 601 100 601C66.7 601 33.3 601 16.7 601L0 601Z" fill="#ff4b60"></path><path d="M0 533L16.7 530.8C33.3 528.7 66.7 524.3 100 523C133.3 521.7 166.7 523.3 200 517.8C233.3 512.3 266.7 499.7 300 492.8C333.3 486 366.7 485 400 493.8C433.3 502.7 466.7 521.3 500 525.3C533.3 529.3 566.7 518.7 600 511.7C633.3 504.7 666.7 501.3 700 496.7C733.3 492 766.7 486 800 489C833.3 492 866.7 504 883.3 510L900 516L900 601L883.3 601C866.7 601 833.3 601 800 601C766.7 601 733.3 601 700 601C666.7 601 633.3 601 600 601C566.7 601 533.3 601 500 601C466.7 601 433.3 601 400 601C366.7 601 333.3 601 300 601C266.7 601 233.3 601 200 601C166.7 601 133.3 601 100 601C66.7 601 33.3 601 16.7 601L0 601Z" fill="#ff3362"></path><path d="M0 526L16.7 527.5C33.3 529 66.7 532 100 534.5C133.3 537 166.7 539 200 543C233.3 547 266.7 553 300 551C333.3 549 366.7 539 400 534C433.3 529 466.7 529 500 530.2C533.3 531.3 566.7 533.7 600 533.8C633.3 534 666.7 532 700 533.3C733.3 534.7 766.7 539.3 800 539C833.3 538.7 866.7 533.3 883.3 530.7L900 528L900 601L883.3 601C866.7 601 833.3 601 800 601C766.7 601 733.3 601 700 601C666.7 601 633.3 601 600 601C566.7 601 533.3 601 500 601C466.7 601 433.3 601 400 601C366.7 601 333.3 601 300 601C266.7 601 233.3 601 200 601C166.7 601 133.3 601 100 601C66.7 601 33.3 601 16.7 601L0 601Z" fill="#ff0066"></path></svg>